<svg width="19" height="22" viewBox="0 0 19 22" fill="none" xmlns="http://www.w3.org/2000/svg">
<path d="M16.4215 11.9636H15.363C15.3053 10.8061 15.0751 9.66436 14.6804 8.57773L15.5249 8.11092C15.66 8.03647 15.7605 7.9103 15.8044 7.76014C15.8483 7.60998 15.8321 7.44815 15.7592 7.31024C15.6863 7.17232 15.5628 7.06963 15.4158 7.02475C15.2688 6.97987 15.1104 6.99648 14.9754 7.07092L13.2401 7.82728H4.82357L3.04194 7.07092C2.90693 6.99648 2.74851 6.97987 2.60152 7.02475C2.45452 7.06963 2.33101 7.17232 2.25813 7.31024C2.18526 7.44815 2.16901 7.60998 2.21294 7.76014C2.25688 7.9103 2.3574 8.03647 2.49241 8.11092L3.36009 8.58364C2.96672 9.66862 2.73659 10.8082 2.67751 11.9636H1.57845C1.42504 11.9636 1.27791 12.0259 1.16942 12.1367C1.06094 12.2475 1 12.3978 1 12.5546C1 12.7113 1.06094 12.8616 1.16942 12.9724C1.27791 13.0832 1.42504 13.1455 1.57845 13.1455H2.69487C2.74788 14.4182 3.07579 15.6632 3.6551 16.7914L2.56182 17.5714C2.48876 17.61 2.4246 17.664 2.37361 17.7299C2.32262 17.7959 2.28598 17.8721 2.26613 17.9537C2.24629 18.0352 2.24369 18.1201 2.25851 18.2028C2.27334 18.2854 2.30524 18.3639 2.3521 18.4329C2.39896 18.502 2.4597 18.56 2.53025 18.6032C2.60081 18.6464 2.67957 18.6737 2.76128 18.6833C2.84299 18.6929 2.92576 18.6846 3.00408 18.659C3.0824 18.6333 3.15447 18.5909 3.21547 18.5345L4.27983 17.7723C4.78698 18.4103 5.41547 18.9366 6.12733 19.3195C6.83919 19.7024 7.61965 19.9339 8.42155 20V9.0091H9.57845V20C10.3795 19.9353 11.1594 19.7057 11.8712 19.3248C12.583 18.944 13.212 18.4199 13.7202 17.7841L14.7845 18.5345C14.8468 18.5792 14.9171 18.6108 14.9914 18.6277C15.0656 18.6446 15.1424 18.6463 15.2173 18.6329C15.2923 18.6194 15.3639 18.5911 15.4281 18.5493C15.4923 18.5076 15.5478 18.4534 15.5915 18.3898C15.6351 18.3261 15.6661 18.2543 15.6826 18.1785C15.6992 18.1026 15.7009 18.0242 15.6877 17.9476C15.6746 17.8711 15.6468 17.7979 15.6059 17.7324C15.5651 17.6668 15.512 17.6101 15.4497 17.5655L14.3738 16.7973C14.9521 15.667 15.2781 14.4198 15.3283 13.1455H16.4215C16.575 13.1455 16.7221 13.0832 16.8306 12.9724C16.9391 12.8616 17 12.7113 17 12.5546C17 12.3978 16.9391 12.2475 16.8306 12.1367C16.7221 12.0259 16.575 11.9636 16.4215 11.9636ZM4.89877 10.6282C4.89877 10.4003 4.96493 10.1775 5.08887 9.98802C5.21281 9.79853 5.38898 9.65084 5.59509 9.56363C5.80121 9.47641 6.028 9.4536 6.24681 9.49806C6.46562 9.54252 6.66661 9.65226 6.82436 9.81341C6.98211 9.97456 7.08954 10.1799 7.13306 10.4034C7.17659 10.6269 7.15425 10.8586 7.06887 11.0691C6.9835 11.2797 6.83892 11.4597 6.65343 11.5863C6.46793 11.7129 6.24985 11.7805 6.02675 11.7805C5.72759 11.7805 5.44069 11.6591 5.22915 11.443C5.01761 11.2269 4.89877 10.9338 4.89877 10.6282ZM6.68619 16.3718C6.50543 16.3718 6.32872 16.3171 6.17842 16.2145C6.02812 16.1119 5.91098 15.9661 5.84181 15.7955C5.77263 15.6249 5.75453 15.4371 5.7898 15.256C5.82506 15.0749 5.91211 14.9086 6.03993 14.778C6.16774 14.6474 6.3306 14.5585 6.50789 14.5225C6.68518 14.4865 6.86894 14.505 7.03594 14.5756C7.20295 14.6463 7.34569 14.7659 7.44612 14.9195C7.54654 15.073 7.60014 15.2535 7.60014 15.4382C7.60014 15.6858 7.50385 15.9233 7.33245 16.0984C7.16105 16.2735 6.92859 16.3718 6.68619 16.3718ZM11.5625 16.3718C11.3815 16.373 11.2043 16.3192 11.0532 16.2174C10.9022 16.1155 10.7841 15.9701 10.714 15.7996C10.644 15.6291 10.6251 15.4412 10.6597 15.2597C10.6943 15.0782 10.7809 14.9113 10.9084 14.7801C11.036 14.649 11.1989 14.5595 11.3763 14.5229C11.5538 14.4864 11.7378 14.5046 11.9052 14.5751C12.0725 14.6456 12.2156 14.7652 12.3163 14.9189C12.417 15.0725 12.4707 15.2533 12.4707 15.4382C12.4707 15.6858 12.3744 15.9233 12.203 16.0984C12.0316 16.2735 11.7992 16.3718 11.5568 16.3718H11.5625ZM12.2162 11.7805C11.9931 11.7805 11.775 11.7129 11.5895 11.5863C11.404 11.4597 11.2595 11.2797 11.1741 11.0691C11.0887 10.8586 11.0664 10.6269 11.1099 10.4034C11.1534 10.1799 11.2608 9.97456 11.4186 9.81341C11.5763 9.65226 11.7773 9.54252 11.9961 9.49806C12.2149 9.4536 12.4417 9.47641 12.6479 9.56363C12.854 9.65084 13.0301 9.79853 13.1541 9.98802C13.278 10.1775 13.3442 10.4003 13.3442 10.6282C13.3442 10.9338 13.2253 11.2269 13.0138 11.443C12.8023 11.6591 12.5154 11.7805 12.2162 11.7805Z" fill="#EE6C29"/>
<path d="M5.26264 3.82281C5.37252 3.78305 5.4739 3.72273 5.56139 3.64506C5.73484 3.73736 5.89963 3.84519 6.05378 3.96722C6.24421 4.12508 6.42012 4.29983 6.57935 4.48935C5.9914 5.02631 5.46782 5.63028 5.01922 6.28902C4.79792 6.60563 5.06901 7 5.495 7H12.5709C12.9969 7 13.268 6.60563 13.0467 6.28902C12.5896 5.62034 12.0547 5.00873 11.4534 4.46713C11.6063 4.28598 11.7747 4.1187 11.9568 3.96722C12.111 3.84519 12.2758 3.73736 12.4492 3.64506C12.6057 3.78259 12.8034 3.86381 13.011 3.87587C13.2187 3.88793 13.4244 3.83013 13.5956 3.71164C13.7669 3.59314 13.8939 3.4207 13.9565 3.22159C14.0192 3.02249 14.014 2.80809 13.9417 2.61231C13.8693 2.41653 13.7341 2.25055 13.5572 2.14062C13.3804 2.03069 13.1721 1.98309 12.9653 2.00535C12.7586 2.02761 12.5651 2.11846 12.4155 2.26353C12.2659 2.4086 12.1687 2.5996 12.1394 2.80633C11.8807 2.93407 11.6359 3.08859 11.4091 3.26735C11.17 3.46494 10.9496 3.68436 10.7508 3.92279C10.2438 3.54567 9.63803 3.32557 9.00807 3.28957C8.37178 3.33345 7.76217 3.56321 7.2543 3.95056C7.0507 3.70588 6.82473 3.48086 6.57935 3.27846C6.35257 3.0997 6.10782 2.94518 5.84908 2.81743C5.82136 2.62736 5.73589 2.4505 5.60433 2.31101C5.47278 2.17152 5.30155 2.07619 5.11402 2.03804C4.9265 1.99989 4.73182 2.02078 4.55655 2.09785C4.38129 2.17492 4.23399 2.30442 4.13476 2.46867C4.03553 2.63292 3.98921 2.82391 4.00212 3.01558C4.01503 3.20724 4.08654 3.39023 4.20689 3.53958C4.32724 3.68892 4.49057 3.79733 4.67457 3.85001C4.85857 3.90269 5.05428 3.89707 5.23498 3.83391L5.26264 3.82281Z" fill="#EE6C29"/>
</svg>
