<svg width="16" height="18" viewBox="0 0 16 18" fill="none" xmlns="http://www.w3.org/2000/svg">
<path fill-rule="evenodd" clip-rule="evenodd" d="M4.56139 1.64506C4.4739 1.72273 4.37252 1.78305 4.26264 1.82281L4.23498 1.83391C4.05428 1.89707 3.85857 1.90269 3.67457 1.85001C3.49057 1.79733 3.32724 1.68892 3.20689 1.53958C3.08654 1.39024 3.01503 1.20724 3.00212 1.01558C2.98921 0.823911 3.03553 0.632916 3.13476 0.468667C3.23399 0.304417 3.38129 0.174918 3.55655 0.0978468C3.73182 0.0207761 3.9265 -0.000109437 4.11403 0.0380415C4.30155 0.0761923 4.47278 0.17152 4.60433 0.311011C4.73589 0.450502 4.82136 0.627358 4.84908 0.817434C5.10781 0.945183 5.35257 1.0997 5.57935 1.27846C5.82473 1.48086 6.0507 1.70588 6.2543 1.95056C6.76217 1.56321 7.37178 1.33345 8.00807 1.28957C8.63803 1.32557 9.24377 1.54567 9.75077 1.92279C9.94958 1.68436 10.17 1.46494 10.4091 1.26735C10.6359 1.08859 10.8807 0.934074 11.1394 0.806325C11.1687 0.599602 11.2659 0.408599 11.4155 0.263531C11.5651 0.118464 11.7586 0.027613 11.9653 0.00535146C12.1721 -0.0169101 12.3804 0.0306882 12.5572 0.140617C12.7341 0.250545 12.8693 0.416528 12.9417 0.612309C13.014 0.808089 13.0192 1.02249 12.9565 1.22159C12.8939 1.4207 12.7669 1.59314 12.5956 1.71164C12.4244 1.83013 12.2187 1.88793 12.011 1.87587C11.8034 1.86381 11.6057 1.78259 11.4492 1.64506C11.2758 1.73736 11.111 1.84519 10.9568 1.96722C10.7747 2.1187 10.6063 2.28598 10.4534 2.46713C11.0547 3.00873 11.5896 3.62034 12.0467 4.28902C12.268 4.60563 11.9969 5 11.5709 5H4.495C4.06901 5 3.79792 4.60563 4.01922 4.28902C4.46782 3.63028 4.9914 3.02631 5.57935 2.48935C5.42012 2.29983 5.24421 2.12508 5.05378 1.96722C4.89963 1.84519 4.73484 1.73736 4.56139 1.64506ZM14.363 9.96364H15.4215C15.575 9.96364 15.7221 10.0259 15.8306 10.1367C15.9391 10.2475 16 10.3978 16 10.5546C16 10.7113 15.9391 10.8616 15.8306 10.9724C15.7221 11.0832 15.575 11.1455 15.4215 11.1455H14.3283C14.2781 12.4198 13.9521 13.667 13.3738 14.7973L14.4497 15.5655C14.512 15.6101 14.5651 15.6668 14.6059 15.7324C14.6468 15.7979 14.6746 15.8711 14.6877 15.9476C14.7009 16.0242 14.6992 16.1026 14.6826 16.1785C14.6661 16.2543 14.6351 16.3261 14.5915 16.3898C14.5478 16.4534 14.4923 16.5076 14.4281 16.5493C14.3639 16.591 14.2923 16.6194 14.2173 16.6329C14.1424 16.6463 14.0656 16.6446 13.9914 16.6277C13.9171 16.6108 13.8468 16.5792 13.7845 16.5345L12.7202 15.7841C12.212 16.4199 11.583 16.944 10.8712 17.3248C10.1594 17.7057 9.37948 17.9353 8.57845 18V7.0091H7.42155V18C6.61965 17.9339 5.83919 17.7024 5.12733 17.3195C4.41547 16.9366 3.78698 16.4103 3.27983 15.7723L2.21547 16.5345C2.15447 16.5909 2.0824 16.6333 2.00408 16.659C1.92576 16.6846 1.84299 16.6929 1.76128 16.6833C1.67957 16.6737 1.60081 16.6464 1.53025 16.6032C1.4597 16.56 1.39896 16.502 1.3521 16.4329C1.30524 16.3639 1.27334 16.2854 1.25851 16.2028C1.24369 16.1201 1.24629 16.0352 1.26613 15.9537C1.28598 15.8721 1.32262 15.7959 1.37361 15.7299C1.4246 15.664 1.48876 15.61 1.56182 15.5714L2.6551 14.7914C2.07579 13.6632 1.74788 12.4182 1.69487 11.1455H0.578453C0.425037 11.1455 0.277906 11.0832 0.169425 10.9724C0.0609438 10.8616 0 10.7113 0 10.5546C0 10.3978 0.0609438 10.2475 0.169425 10.1367C0.277906 10.0259 0.425037 9.96364 0.578453 9.96364H1.67751C1.73659 8.80822 1.96672 7.66862 2.36009 6.58364L1.49241 6.11092C1.3574 6.03648 1.25688 5.9103 1.21294 5.76014C1.16901 5.60998 1.18526 5.44815 1.25813 5.31024C1.33101 5.17232 1.45453 5.06963 1.60152 5.02475C1.74851 4.97987 1.90693 4.99648 2.04194 5.07092L3.82357 5.82728H12.2401L13.9754 5.07092C14.1104 4.99648 14.2688 4.97987 14.4158 5.02475C14.5628 5.06963 14.6863 5.17232 14.7592 5.31024C14.8321 5.44815 14.8483 5.60998 14.8044 5.76014C14.7605 5.9103 14.66 6.03648 14.5249 6.11092L13.6804 6.57773C14.0751 7.66436 14.3053 8.80612 14.363 9.96364Z" fill="#EE6C29"/>
</svg>
